<svg width="378" height="173" viewBox="0 0 378 173" fill="none" xmlns="http://www.w3.org/2000/svg">
<path d="M6.58357 168.396C5.44195 168.391 4.32701 168.05 3.37779 167.416C2.42857 166.782 1.68708 165.882 1.24581 164.829C0.804545 163.776 0.683027 162.617 0.896407 161.495C1.10979 160.374 1.64862 159.34 2.44571 158.522C2.98564 157.977 3.63093 157.547 4.3423 157.259C5.05366 156.971 5.81622 156.83 6.58357 156.846C7.61513 156.832 8.63048 157.104 9.51673 157.632C10.3453 158.12 11.0036 158.852 11.4023 159.727L10.2238 160.408C9.9126 159.751 9.41063 159.204 8.78344 158.837C8.11378 158.454 7.35483 158.255 6.58357 158.261C6.00984 158.247 5.4395 158.352 4.90792 158.568C4.37634 158.784 3.89484 159.108 3.49327 159.518C2.68537 160.349 2.23338 161.462 2.23338 162.621C2.23338 163.78 2.68537 164.893 3.49327 165.724C3.89484 166.134 4.37634 166.457 4.90792 166.674C5.4395 166.89 6.00984 166.995 6.58357 166.981C7.35437 166.983 8.11239 166.785 8.78344 166.405C9.42063 166.026 9.94502 165.484 10.3024 164.834L11.5071 165.515C11.0668 166.396 10.3738 167.125 9.51673 167.61C8.62889 168.134 7.61462 168.406 6.58357 168.396Z" fill="#4891A5"/>
<path d="M22.8468 157.108V168.133H21.3802V158.522H15.0424V168.133H13.6021V157.108H22.8468Z" fill="#4891A5"/>
<path d="M33.8464 157.108H35.3916L30.6776 169.181C30.3292 170.204 29.7037 171.111 28.8705 171.8C28.1342 172.399 27.199 172.698 26.2516 172.638V171.25C27.5873 171.407 28.5825 170.647 29.2634 168.971L29.5515 168.29L24.6279 157.213H26.1731L30.3109 166.431L33.8464 157.108Z" fill="#4891A5"/>
<path d="M45.0816 157.108V158.522H41.1795V168.133H39.7129V158.522H35.8369V157.108H45.0816Z" fill="#4891A5"/>
<path d="M54.6141 157.108H56.0806V168.133H54.6141V163.315H48.2763V168.133H46.8359V157.108H48.2763V161.927H54.6141V157.108Z" fill="#4891A5"/>
<path d="M67.1588 157.108H68.3897V168.133H66.9493V159.648L60.3759 168.133H59.145V157.108H60.6116V165.593L67.1588 157.108Z" fill="#4891A5"/>
<path d="M80.3582 168.133H78.4202L72.9206 162.896V168.133H71.5063V157.108H72.9467V161.979L78.1845 157.108H80.1749L74.4919 162.346L80.3582 168.133Z" fill="#4891A5"/>
<path d="M92.9809 168.396C92.2123 168.421 91.447 168.285 90.7342 167.996C90.0215 167.708 89.3772 167.273 88.843 166.719C88.0333 165.907 87.4832 164.872 87.2627 163.746C87.0422 162.621 87.1612 161.455 87.6046 160.397C88.048 159.339 88.7958 158.436 89.753 157.804C90.7103 157.172 91.8338 156.839 92.9809 156.846C94.0041 156.833 95.0108 157.105 95.8879 157.632C96.724 158.119 97.3912 158.85 97.7997 159.727L96.595 160.408C96.3023 159.747 95.807 159.197 95.1808 158.837C94.5097 158.457 93.7517 158.259 92.9809 158.26C92.4072 158.247 91.8368 158.352 91.3052 158.568C90.7737 158.784 90.2922 159.107 89.8906 159.517C89.0827 160.348 88.6307 161.462 88.6307 162.621C88.6307 163.78 89.0827 164.893 89.8906 165.724C90.2922 166.134 90.7737 166.457 91.3052 166.674C91.8368 166.89 92.4072 166.995 92.9809 166.981C93.7517 166.983 94.5097 166.784 95.1808 166.405C95.8119 166.018 96.3345 165.478 96.6997 164.834L97.9044 165.515C97.4612 166.402 96.7577 167.133 95.8879 167.61C95.0108 168.137 94.0041 168.409 92.9809 168.396Z" fill="#4891A5"/>
<path d="M109.113 166.719C108.579 167.265 107.939 167.695 107.231 167.984C106.524 168.272 105.765 168.412 105.002 168.395C103.859 168.392 102.743 168.051 101.794 167.415C100.844 166.779 100.105 165.876 99.6678 164.82C99.2309 163.764 99.1163 162.603 99.3385 161.482C99.5606 160.361 100.11 159.331 100.916 158.522C101.448 157.98 102.085 157.553 102.787 157.264C103.489 156.976 104.243 156.834 105.002 156.846C105.764 156.835 106.522 156.978 107.228 157.266C107.934 157.554 108.576 157.981 109.113 158.522C110.19 159.614 110.793 161.087 110.793 162.62C110.793 164.154 110.19 165.626 109.113 166.719ZM101.938 165.724C102.76 166.528 103.864 166.979 105.015 166.979C106.165 166.979 107.27 166.528 108.092 165.724C108.9 164.893 109.352 163.779 109.352 162.62C109.352 161.461 108.9 160.348 108.092 159.517C107.27 158.712 106.165 158.262 105.015 158.262C103.864 158.262 102.76 158.712 101.938 159.517C101.13 160.348 100.678 161.461 100.678 162.62C100.678 163.779 101.13 164.893 101.938 165.724Z" fill="#4891A5"/>
<path d="M120.218 162.476C120.765 162.654 121.238 163.007 121.565 163.48C121.891 163.953 122.053 164.521 122.025 165.095C122.033 165.503 121.959 165.909 121.806 166.287C121.652 166.665 121.424 167.008 121.135 167.295C120.782 167.615 120.368 167.858 119.917 168.012C119.467 168.165 118.99 168.224 118.516 168.186H113.278V157.108H118.123C118.593 157.062 119.068 157.113 119.518 157.257C119.969 157.401 120.385 157.636 120.742 157.946C121.03 158.217 121.259 158.546 121.412 158.912C121.566 159.277 121.641 159.671 121.632 160.067C121.648 160.561 121.523 161.05 121.273 161.476C121.023 161.902 120.657 162.249 120.218 162.476ZM118.123 158.522H114.666V161.874H118.123C119.406 161.874 120.035 161.298 120.035 160.146C120.048 159.924 120.01 159.703 119.924 159.498C119.837 159.294 119.705 159.112 119.537 158.967C119.138 158.647 118.633 158.488 118.123 158.522ZM118.647 166.719C119.185 166.753 119.718 166.585 120.139 166.248C120.31 166.082 120.442 165.882 120.528 165.66C120.614 165.439 120.651 165.202 120.637 164.964C120.653 164.735 120.616 164.505 120.53 164.292C120.444 164.079 120.31 163.888 120.139 163.734C119.714 163.406 119.182 163.247 118.647 163.288H114.666V166.719H118.647Z" fill="#4891A5"/>
<path d="M130.117 156.846C130.864 156.837 131.605 156.981 132.294 157.269C132.983 157.558 133.606 157.984 134.124 158.522C135.2 159.614 135.804 161.087 135.804 162.62C135.804 164.154 135.2 165.626 134.124 166.719C133.606 167.257 132.983 167.683 132.294 167.972C131.605 168.26 130.864 168.404 130.117 168.395C129.224 168.432 128.337 168.224 127.553 167.795C126.769 167.366 126.116 166.731 125.665 165.96V172.533H124.225V157.108H125.665V159.281C126.116 158.509 126.769 157.875 127.553 157.446C128.337 157.017 129.224 156.809 130.117 156.846ZM126.922 165.724C127.744 166.528 128.849 166.979 129.999 166.979C131.15 166.979 132.254 166.528 133.076 165.724C133.884 164.893 134.336 163.779 134.336 162.62C134.336 161.461 133.884 160.348 133.076 159.517C132.254 158.712 131.15 158.262 129.999 158.262C128.849 158.262 127.744 158.712 126.922 159.517C126.114 160.348 125.662 161.461 125.662 162.62C125.662 163.779 126.114 164.893 126.922 165.724Z" fill="#4891A5"/>
<path d="M143.29 156.846C144.037 156.821 144.779 156.963 145.464 157.262C146.148 157.561 146.757 158.01 147.245 158.575C148.239 159.702 148.78 161.157 148.764 162.66C148.764 162.817 148.764 163.053 148.764 163.341H139.048C139.16 164.365 139.667 165.304 140.462 165.96C141.299 166.632 142.348 166.984 143.421 166.955C144.179 166.972 144.928 166.791 145.595 166.431C146.177 166.118 146.659 165.646 146.983 165.069L148.24 165.829C147.759 166.61 147.082 167.251 146.276 167.688C145.386 168.149 144.397 168.383 143.395 168.369C142.617 168.398 141.841 168.266 141.115 167.982C140.39 167.699 139.731 167.269 139.179 166.719C138.141 165.597 137.564 164.124 137.564 162.595C137.564 161.065 138.141 159.593 139.179 158.47C139.716 157.932 140.359 157.51 141.066 157.231C141.773 156.952 142.53 156.821 143.29 156.846ZM143.29 158.26C142.252 158.227 141.239 158.586 140.453 159.265C139.667 159.945 139.166 160.895 139.048 161.927H147.245C147.15 160.915 146.672 159.978 145.909 159.308C145.202 158.638 144.265 158.263 143.29 158.26Z" fill="#4891A5"/>
<path d="M161.858 157.108V168.133H160.392V159.334L156.542 165.593H156.359L152.509 159.334V168.133H151.068V157.108H152.692L156.411 163.157L160.13 157.108H161.858Z" fill="#4891A5"/>
<path d="M170.003 156.846C170.749 156.82 171.492 156.963 172.176 157.262C172.861 157.561 173.469 158.009 173.957 158.574C174.952 159.701 175.493 161.157 175.476 162.66C175.476 162.817 175.476 163.053 175.476 163.341H165.787C165.899 164.365 166.406 165.304 167.201 165.96C168.04 166.627 169.088 166.98 170.16 166.955C170.918 166.971 171.667 166.791 172.334 166.431C172.916 166.118 173.398 165.646 173.722 165.069L174.979 165.829C174.498 166.61 173.821 167.251 173.015 167.688C172.133 168.146 171.153 168.38 170.16 168.369C169.358 168.422 168.554 168.304 167.8 168.024C167.046 167.744 166.36 167.309 165.787 166.745C164.748 165.623 164.172 164.15 164.172 162.621C164.172 161.091 164.748 159.619 165.787 158.496C166.334 157.94 166.992 157.506 167.719 157.221C168.445 156.937 169.224 156.809 170.003 156.846ZM170.003 158.26C168.969 158.234 167.963 158.595 167.182 159.274C166.402 159.953 165.904 160.899 165.787 161.927H174.01C173.893 160.916 173.409 159.983 172.648 159.308C171.934 158.631 170.987 158.256 170.003 158.26Z" fill="#4891A5"/>
<path d="M185.559 157.108H187.025V168.133H185.559V163.315H179.221V168.133H177.781V157.108H179.221V161.927H185.559V157.108Z" fill="#4891A5"/>
<path d="M197.894 157.108H199.335V168.133H197.894V163.315H191.556V168.133H190.09V157.108H191.556V161.927H197.894V157.108Z" fill="#4891A5"/>
<path d="M211.643 166.719C211.13 167.249 210.516 167.671 209.837 167.959C209.157 168.247 208.427 168.395 207.689 168.395C206.925 168.412 206.166 168.272 205.459 167.984C204.752 167.695 204.111 167.265 203.577 166.719C202.501 165.626 201.897 164.154 201.897 162.62C201.897 161.087 202.501 159.614 203.577 158.522C204.115 157.981 204.756 157.554 205.463 157.266C206.169 156.978 206.926 156.835 207.689 156.846C208.448 156.834 209.201 156.976 209.904 157.264C210.606 157.553 211.242 157.98 211.774 158.522C212.314 159.06 212.741 159.698 213.033 160.402C213.325 161.105 213.476 161.859 213.476 162.62C213.476 163.382 213.325 164.136 213.033 164.839C212.741 165.543 212.314 166.181 211.774 166.719H211.643ZM204.468 165.724C205.29 166.528 206.394 166.979 207.545 166.979C208.695 166.979 209.8 166.528 210.622 165.724C211.43 164.893 211.882 163.779 211.882 162.62C211.882 161.461 211.43 160.348 210.622 159.517C209.8 158.712 208.695 158.262 207.545 158.262C206.394 158.262 205.29 158.712 204.468 159.517C203.66 160.348 203.208 161.461 203.208 162.62C203.208 163.779 203.66 164.893 204.468 165.724Z" fill="#4891A5"/>
<path d="M222.8 157.108V158.522H217.221V168.133H215.755V157.108H222.8Z" fill="#4891A5"/>
<path d="M233.354 166.719C232.248 167.714 230.803 168.248 229.316 168.211C227.828 168.173 226.412 167.567 225.358 166.516C224.305 165.466 223.694 164.052 223.651 162.564C223.609 161.077 224.138 159.63 225.13 158.522C226.231 157.45 227.706 156.85 229.242 156.85C230.778 156.85 232.253 157.45 233.354 158.522C234.43 159.614 235.033 161.087 235.033 162.62C235.033 164.154 234.43 165.626 233.354 166.719ZM226.178 165.724C226.574 166.133 227.051 166.456 227.579 166.672C228.106 166.888 228.672 166.994 229.242 166.981C229.816 166.994 230.386 166.889 230.918 166.673C231.449 166.457 231.931 166.134 232.332 165.724C233.14 164.893 233.592 163.779 233.592 162.62C233.592 161.461 233.14 160.348 232.332 159.517C231.931 159.107 231.449 158.784 230.918 158.568C230.386 158.351 229.816 158.247 229.242 158.26C228.672 158.247 228.106 158.352 227.579 158.568C227.051 158.785 226.574 159.108 226.178 159.517C225.37 160.348 224.918 161.461 224.918 162.62C224.918 163.779 225.37 164.893 226.178 165.724Z" fill="#4891A5"/>
<path d="M252.21 166.719C251.117 167.796 249.645 168.399 248.111 168.399C246.578 168.399 245.105 167.796 244.013 166.719C243.474 166.182 243.046 165.543 242.754 164.84C242.462 164.136 242.312 163.382 242.312 162.621C242.312 161.859 242.462 161.105 242.754 160.402C243.046 159.699 243.474 159.06 244.013 158.522C245.105 157.446 246.578 156.842 248.111 156.842C249.645 156.842 251.117 157.446 252.21 158.522C253.286 159.615 253.89 161.087 253.89 162.621C253.89 164.154 253.286 165.627 252.21 166.719ZM245.034 165.724C245.856 166.529 246.961 166.979 248.111 166.979C249.262 166.979 250.366 166.529 251.189 165.724C251.996 164.893 252.448 163.78 252.448 162.621C252.448 161.462 251.996 160.348 251.189 159.517C250.366 158.713 249.262 158.262 248.111 158.262C246.961 158.262 245.856 158.713 245.034 159.517C244.226 160.348 243.774 161.462 243.774 162.621C243.774 163.78 244.226 164.893 245.034 165.724Z" fill="#4891A5"/>
<path d="M261.167 168.395C260.435 168.415 259.708 168.286 259.028 168.016C258.348 167.746 257.73 167.34 257.212 166.824C256.686 166.286 256.275 165.646 256.005 164.943C255.734 164.241 255.611 163.491 255.641 162.738C255.555 161.253 255.833 159.77 256.453 158.417C257.303 157.226 258.488 156.315 259.857 155.798L261.14 155.222L262.345 154.698C262.655 154.548 262.953 154.373 263.236 154.175C263.534 154.002 263.785 153.759 263.969 153.468C264.133 153.176 264.24 152.856 264.283 152.525L265.409 153.18C265.36 153.53 265.244 153.867 265.069 154.175C264.918 154.442 264.733 154.688 264.519 154.908C264.275 155.161 263.992 155.373 263.681 155.537L262.764 156.034L261.664 156.506L260.617 156.951C259.786 157.257 259.022 157.72 258.364 158.313C257.85 158.824 257.488 159.467 257.317 160.172C257.812 159.521 258.472 159.015 259.229 158.705C259.941 158.402 260.706 158.242 261.481 158.234C262.168 158.211 262.852 158.331 263.49 158.588C264.127 158.846 264.704 159.233 265.182 159.727C265.661 160.22 266.031 160.808 266.268 161.453C266.506 162.098 266.606 162.786 266.562 163.472C266.584 164.16 266.46 164.844 266.198 165.481C265.936 166.117 265.542 166.691 265.043 167.164C263.961 168.065 262.57 168.506 261.167 168.395ZM261.167 166.929C261.684 166.951 262.201 166.869 262.686 166.689C263.172 166.509 263.617 166.235 263.995 165.881C264.362 165.553 264.653 165.149 264.848 164.696C265.042 164.244 265.136 163.754 265.121 163.262C265.141 162.757 265.054 162.254 264.866 161.785C264.677 161.316 264.392 160.892 264.029 160.541C263.665 160.19 263.232 159.92 262.757 159.748C262.281 159.576 261.775 159.506 261.271 159.543C260.246 159.539 259.25 159.881 258.443 160.512C258.037 160.816 257.708 161.212 257.485 161.667C257.262 162.122 257.15 162.624 257.16 163.131C257.162 163.624 257.265 164.11 257.464 164.561C257.662 165.011 257.951 165.416 258.312 165.75C259.074 166.499 260.098 166.922 261.167 166.929Z" fill="#4891A5"/>
<path d="M274.654 156.846C275.407 156.846 276.153 156.995 276.847 157.286C277.542 157.576 278.172 158.002 278.701 158.538C279.23 159.074 279.646 159.71 279.927 160.409C280.208 161.107 280.348 161.855 280.337 162.608C280.353 163.369 280.215 164.125 279.932 164.832C279.648 165.538 279.225 166.18 278.687 166.719C278.162 167.256 277.535 167.68 276.842 167.968C276.149 168.256 275.405 168.402 274.654 168.395C273.764 168.433 272.881 168.226 272.101 167.796C271.321 167.367 270.673 166.732 270.228 165.96V172.533H268.762V157.108H270.228V159.282C270.673 158.51 271.321 157.875 272.101 157.445C272.881 157.016 273.764 156.809 274.654 156.846ZM271.459 165.724C272.286 166.53 273.395 166.982 274.549 166.982C275.704 166.982 276.813 166.53 277.64 165.724C278.448 164.893 278.9 163.78 278.9 162.621C278.9 161.462 278.448 160.348 277.64 159.517C276.813 158.711 275.704 158.26 274.549 158.26C273.395 158.26 272.286 158.711 271.459 159.517C270.669 160.357 270.229 161.467 270.229 162.621C270.229 163.774 270.669 164.884 271.459 165.724Z" fill="#4891A5"/>
<path d="M292.227 157.108H293.667V168.133H292.227V165.96C291.776 166.731 291.123 167.366 290.339 167.795C289.554 168.224 288.668 168.432 287.775 168.395C287.028 168.404 286.287 168.26 285.598 167.972C284.909 167.683 284.286 167.257 283.768 166.719C282.691 165.626 282.088 164.154 282.088 162.62C282.088 161.087 282.691 159.614 283.768 158.522C284.286 157.984 284.909 157.558 285.598 157.269C286.287 156.981 287.028 156.837 287.775 156.846C288.668 156.809 289.554 157.017 290.339 157.446C291.123 157.875 291.776 158.509 292.227 159.281V157.108ZM284.815 165.724C285.637 166.528 286.742 166.979 287.892 166.979C289.043 166.979 290.147 166.528 290.97 165.724C291.778 164.893 292.229 163.779 292.229 162.62C292.229 161.461 291.778 160.348 290.97 159.517C290.147 158.712 289.043 158.262 287.892 158.262C286.742 158.262 285.637 158.712 284.815 159.517C284.007 160.348 283.555 161.461 283.555 162.62C283.555 163.779 284.007 164.893 284.815 165.724Z" fill="#4891A5"/>
<path d="M302.441 162.476C303.007 162.635 303.504 162.979 303.851 163.454C304.197 163.929 304.374 164.507 304.352 165.095C304.356 165.539 304.262 165.978 304.076 166.381C303.891 166.784 303.618 167.141 303.279 167.426C302.42 168.113 301.338 168.458 300.241 168.395C299.326 168.496 298.403 168.294 297.613 167.821C296.824 167.349 296.21 166.63 295.867 165.776L297.098 165.043C297.32 165.679 297.752 166.221 298.324 166.578C298.895 166.935 299.572 167.086 300.241 167.007C300.939 167.049 301.63 166.856 302.205 166.457C302.42 166.29 302.594 166.076 302.712 165.83C302.831 165.585 302.89 165.315 302.886 165.043C302.896 164.803 302.849 164.564 302.749 164.345C302.649 164.126 302.498 163.935 302.31 163.786C301.876 163.451 301.337 163.284 300.791 163.314H299.167V161.9H300.346C300.641 161.917 300.937 161.875 301.215 161.776C301.494 161.677 301.75 161.523 301.969 161.324C302.145 161.156 302.283 160.952 302.373 160.726C302.463 160.5 302.504 160.258 302.493 160.015C302.497 159.763 302.442 159.513 302.333 159.286C302.224 159.058 302.064 158.86 301.864 158.705C301.369 158.331 300.756 158.146 300.136 158.181C299.56 158.113 298.977 158.238 298.479 158.536C297.981 158.835 297.597 159.29 297.386 159.831L296.181 159.124C296.515 158.37 297.075 157.738 297.783 157.316C298.492 156.894 299.314 156.702 300.136 156.767C301.143 156.72 302.131 157.046 302.912 157.684C303.241 157.96 303.505 158.304 303.686 158.694C303.867 159.083 303.96 159.507 303.96 159.936C303.992 160.463 303.864 160.988 303.593 161.441C303.322 161.895 302.92 162.256 302.441 162.476Z" fill="#4891A5"/>
<path d="M315.77 166.719C314.678 167.796 313.206 168.399 311.672 168.399C310.138 168.399 308.666 167.796 307.573 166.719C306.497 165.627 305.894 164.154 305.894 162.621C305.894 161.087 306.497 159.615 307.573 158.522C308.666 157.446 310.138 156.842 311.672 156.842C313.206 156.842 314.678 157.446 315.77 158.522C316.847 159.615 317.45 161.087 317.45 162.621C317.45 164.154 316.847 165.627 315.77 166.719ZM308.595 165.724C309.417 166.529 310.521 166.979 311.672 166.979C312.822 166.979 313.927 166.529 314.749 165.724C315.557 164.893 316.009 163.78 316.009 162.621C316.009 161.462 315.557 160.348 314.749 159.517C313.927 158.713 312.822 158.262 311.672 158.262C310.521 158.262 309.417 158.713 308.595 159.517C307.787 160.348 307.335 161.462 307.335 162.621C307.335 163.78 307.787 164.893 308.595 165.724Z" fill="#4891A5"/>
<path d="M326.875 162.477C327.422 162.654 327.895 163.007 328.221 163.48C328.548 163.954 328.71 164.521 328.682 165.096C328.696 165.504 328.625 165.912 328.471 166.291C328.318 166.67 328.086 167.012 327.791 167.296C327.44 167.618 327.026 167.863 326.576 168.016C326.125 168.17 325.647 168.227 325.172 168.186H319.935V157.108H324.832C325.739 157.052 326.632 157.353 327.32 157.946C327.62 158.209 327.856 158.536 328.01 158.904C328.165 159.271 328.233 159.669 328.21 160.067C328.233 160.553 328.121 161.036 327.885 161.462C327.649 161.887 327.299 162.239 326.875 162.477ZM324.78 158.522H321.323V161.874H324.78C326.063 161.874 326.691 161.298 326.691 160.146C326.705 159.924 326.667 159.703 326.581 159.498C326.494 159.294 326.362 159.112 326.194 158.967C325.795 158.647 325.29 158.488 324.78 158.522ZM325.225 166.719C325.764 166.758 326.298 166.59 326.718 166.248C326.893 166.085 327.03 165.886 327.121 165.664C327.211 165.442 327.252 165.204 327.241 164.965C327.252 164.733 327.21 164.503 327.12 164.29C327.029 164.077 326.891 163.887 326.718 163.734C326.294 163.401 325.761 163.242 325.225 163.289H321.323V166.719H325.225Z" fill="#4891A5"/>
<path d="M340.336 157.108H341.802V168.133H340.336V165.96C339.891 166.732 339.244 167.367 338.463 167.796C337.683 168.226 336.8 168.433 335.91 168.395C335.159 168.402 334.415 168.256 333.722 167.968C333.029 167.68 332.402 167.256 331.877 166.719C330.819 165.617 330.228 164.148 330.228 162.621C330.228 161.093 330.819 159.624 331.877 158.522C332.402 157.986 333.029 157.561 333.722 157.273C334.415 156.985 335.159 156.84 335.91 156.846C336.8 156.809 337.683 157.016 338.463 157.445C339.244 157.875 339.891 158.51 340.336 159.282V157.108ZM332.924 165.724C333.747 166.529 334.851 166.979 336.002 166.979C337.152 166.979 338.257 166.529 339.079 165.724C339.887 164.893 340.339 163.78 340.339 162.621C340.339 161.462 339.887 160.348 339.079 159.517C338.257 158.713 337.152 158.262 336.002 158.262C334.851 158.262 333.747 158.713 332.924 159.517C332.116 160.348 331.664 161.462 331.664 162.621C331.664 163.78 332.116 164.893 332.924 165.724Z" fill="#4891A5"/>
<path d="M352.671 157.108H354.111V168.133H352.671V163.315H346.333V168.133H344.867V157.108H346.333V161.927H352.671V157.108Z" fill="#4891A5"/>
<path d="M365.215 157.108H366.446V168.133H364.98V159.648L358.433 168.133H357.202V157.108H358.642V165.593L365.215 157.108Z" fill="#4891A5"/>
<path d="M377.445 157.108V168.133H375.979V163.943H374.093L370.715 168.186H368.855L372.339 163.943C371.509 163.839 370.74 163.45 370.165 162.843C369.882 162.547 369.659 162.198 369.511 161.816C369.363 161.434 369.291 161.027 369.301 160.617C369.289 160.153 369.378 159.692 369.564 159.267C369.749 158.841 370.026 158.462 370.374 158.155C371.091 157.509 372.029 157.162 372.993 157.186L377.445 157.108ZM372.967 162.529H375.979V158.522H372.967C372.394 158.51 371.836 158.706 371.396 159.072C371.185 159.253 371.018 159.479 370.905 159.732C370.791 159.986 370.736 160.261 370.741 160.539C370.736 160.812 370.792 161.084 370.905 161.333C371.018 161.582 371.186 161.803 371.396 161.979C371.836 162.345 372.394 162.54 372.967 162.529Z" fill="#4891A5"/>
<path fill-rule="evenodd" clip-rule="evenodd" d="M50.974 9.1397L42.6982 10.0301C42.6216 10.0419 42.5513 10.0794 42.4989 10.1366C42.4465 10.1937 42.4152 10.267 42.4102 10.3444C42.4099 10.4234 42.4394 10.4996 42.4928 10.5579C42.5461 10.6161 42.6195 10.6521 42.6982 10.6587L50.8692 11.5491C50.9472 11.5636 51.0189 11.6014 51.075 11.6575C51.1311 11.7136 51.1689 11.7854 51.1835 11.8634L52.0739 20.0343C52.0739 20.1177 52.107 20.1976 52.1659 20.2565C52.2249 20.3155 52.3048 20.3486 52.3882 20.3486C52.4715 20.3486 52.5514 20.3155 52.6104 20.2565C52.6693 20.1976 52.7024 20.1177 52.7024 20.0343L53.5928 11.8634C53.6074 11.7854 53.6452 11.7136 53.7013 11.6575C53.7574 11.6014 53.8291 11.5636 53.9071 11.5491L62.0781 10.6587C62.1568 10.6521 62.2302 10.6161 62.2835 10.5579C62.3369 10.4996 62.3664 10.4234 62.3661 10.3444C62.3611 10.267 62.3298 10.1937 62.2774 10.1366C62.225 10.0794 62.1547 10.0419 62.0781 10.0301L53.9071 9.1397C53.8291 9.12518 53.7574 9.08738 53.7013 9.03129C53.6452 8.97519 53.6074 8.90343 53.5928 8.82544L52.7024 0.654477C52.7024 0.571128 52.6693 0.491195 52.6104 0.432258C52.5514 0.373321 52.4715 0.34021 52.3882 0.34021C52.3048 0.34021 52.2249 0.373321 52.1659 0.432258C52.107 0.491195 52.0739 0.571128 52.0739 0.654477L51.1835 8.82544C51.1689 8.90343 51.1311 8.97519 51.075 9.03129C51.0189 9.08738 50.9472 9.12518 50.8692 9.1397" fill="#4891A5"/>
<path fill-rule="evenodd" clip-rule="evenodd" d="M145.333 19.406L135.172 20.506C135.077 20.5187 134.99 20.5657 134.927 20.638C134.864 20.7104 134.83 20.8031 134.831 20.8988C134.828 20.947 134.834 20.9954 134.849 21.0412C134.864 21.0871 134.888 21.1295 134.92 21.166C134.951 21.2025 134.99 21.2324 135.033 21.2539C135.076 21.2755 135.123 21.2883 135.172 21.2916L145.333 22.4178C145.435 22.424 145.531 22.4674 145.604 22.5397C145.676 22.6121 145.719 22.7084 145.726 22.8106L146.852 32.9981C146.852 33.1023 146.893 33.2022 146.967 33.2759C147.041 33.3496 147.14 33.3909 147.245 33.3909C147.349 33.3909 147.449 33.3496 147.522 33.2759C147.596 33.2022 147.637 33.1023 147.637 32.9981L148.764 22.8368C148.77 22.7346 148.813 22.6383 148.886 22.5659C148.958 22.4935 149.054 22.4502 149.156 22.4439L159.318 21.3178C159.366 21.3145 159.413 21.3017 159.456 21.2801C159.499 21.2586 159.538 21.2287 159.57 21.1922C159.601 21.1557 159.625 21.1133 159.641 21.0674C159.656 21.0216 159.662 20.9732 159.658 20.925C159.659 20.8293 159.625 20.7365 159.562 20.6642C159.5 20.5919 159.413 20.5449 159.318 20.5322L149.156 19.4322C149.054 19.426 148.958 19.3826 148.886 19.3103C148.813 19.2379 148.77 19.1415 148.764 19.0394L147.637 8.87807C147.637 8.77388 147.596 8.67396 147.522 8.60029C147.449 8.52662 147.349 8.48523 147.245 8.48523C147.14 8.48523 147.041 8.52662 146.967 8.60029C146.893 8.67396 146.852 8.77388 146.852 8.87807L145.726 19.0394C145.719 19.1415 145.676 19.2379 145.604 19.3103C145.531 19.3826 145.435 19.426 145.333 19.4322" fill="#4891A5"/>
<path d="M138.262 49.6284C138.262 50.0687 138.131 50.4991 137.887 50.8651C137.642 51.2312 137.294 51.5165 136.887 51.685C136.481 51.8535 136.033 51.8976 135.601 51.8117C135.17 51.7258 134.773 51.5138 134.462 51.2025C134.15 50.8912 133.938 50.4945 133.852 50.0627C133.766 49.6309 133.811 49.1833 133.979 48.7765C134.148 48.3698 134.433 48.0221 134.799 47.7775C135.165 47.5329 135.595 47.4023 136.036 47.4023C136.626 47.4023 137.192 47.6369 137.61 48.0543C138.027 48.4718 138.262 49.038 138.262 49.6284Z" fill="#4891A5"/>
<path d="M26.9848 24.8269C26.9848 25.4173 26.7503 25.9835 26.3328 26.401C25.9154 26.8184 25.3492 27.053 24.7588 27.053C24.1684 27.053 23.6022 26.8184 23.1847 26.401C22.7672 25.9835 22.5327 25.4173 22.5327 24.8269C22.5327 24.2365 22.7672 23.6703 23.1847 23.2528C23.6022 22.8354 24.1684 22.6008 24.7588 22.6008C25.3492 22.6008 25.9154 22.8354 26.3328 23.2528C26.7503 23.6703 26.9848 24.2365 26.9848 24.8269Z" fill="#4891A5"/>
<path d="M115.294 2.22606C115.294 2.66634 115.164 3.09672 114.919 3.4628C114.675 3.82887 114.327 4.11419 113.92 4.28268C113.513 4.45116 113.066 4.49525 112.634 4.40935C112.202 4.32346 111.806 4.11144 111.494 3.80012C111.183 3.4888 110.971 3.09216 110.885 2.66035C110.799 2.22853 110.843 1.78095 111.012 1.37419C111.18 0.967426 111.466 0.619763 111.832 0.375161C112.198 0.130558 112.628 0 113.068 0C113.659 0 114.225 0.234532 114.642 0.651999C115.06 1.06947 115.294 1.63567 115.294 2.22606Z" fill="#4891A5"/>
<path fill-rule="evenodd" clip-rule="evenodd" d="M86.2508 58.3494C89.9463 62.0046 94.9077 64.096 100.105 64.1895C100.168 64.1899 100.23 64.1769 100.288 64.1514C100.346 64.1258 100.397 64.0882 100.44 64.0412C100.482 63.9941 100.513 63.9386 100.532 63.8784C100.551 63.8182 100.557 63.7546 100.55 63.6919C99.8787 58.3433 97.693 53.2979 94.2503 49.1499C90.8075 45.0019 86.2511 41.9241 81.1177 40.279C81.0592 40.2591 80.997 40.2524 80.9355 40.2594C80.8741 40.2664 80.815 40.2869 80.7624 40.3195C80.7099 40.352 80.6651 40.3958 80.6315 40.4476C80.5978 40.4995 80.5761 40.5582 80.5677 40.6194C80.3657 41.734 80.2693 42.8651 80.2797 43.9978C80.2736 47.9657 81.4398 51.8469 83.6319 55.1543L5.56255 121.386C5.42269 121.54 5.34521 121.741 5.34521 121.949C5.34521 122.157 5.42269 122.358 5.56255 122.512C5.68443 122.689 5.87133 122.81 6.08236 122.85C6.2934 122.889 6.5114 122.843 6.68868 122.722L86.2508 58.3494Z" fill="#4891A5"/>
<path fill-rule="evenodd" clip-rule="evenodd" d="M116.394 30.6937C114.247 28.0996 111.47 26.0996 108.329 24.8845C105.189 23.6695 101.789 23.2801 98.4547 23.7536L96.831 24.0679L0.534132 41.8764C0.364262 41.9082 0.21387 42.0059 0.115751 42.1482C0.017631 42.2905 -0.0202564 42.4658 0.010353 42.6359C0.0193767 42.7239 0.0469014 42.8091 0.0911245 42.8858C0.135348 42.9625 0.195273 43.0289 0.266974 43.0809C0.338674 43.1328 0.420533 43.169 0.50719 43.1871C0.593848 43.2052 0.683349 43.2047 0.769833 43.1858L86.3554 29.5414C84.1833 31.6864 82.5189 34.2904 81.4842 37.1624C81.4636 37.2155 81.4541 37.2724 81.4563 37.3294C81.4584 37.3863 81.4722 37.4423 81.4967 37.4938C81.5212 37.5453 81.556 37.5912 81.5989 37.6288C81.6417 37.6664 81.6919 37.6948 81.7461 37.7123C87.4385 39.485 92.4991 42.8611 96.3218 47.4363C100.145 52.0114 102.567 57.5917 103.3 63.5085C103.306 63.5663 103.324 63.6222 103.353 63.6726C103.382 63.723 103.421 63.7668 103.468 63.8013C103.515 63.8358 103.568 63.8602 103.625 63.8729C103.681 63.8856 103.74 63.8863 103.797 63.8751C106.688 63.3992 109.44 62.3 111.863 60.6539L82.6104 141.971C82.5518 142.141 82.563 142.327 82.6415 142.489C82.72 142.651 82.8595 142.775 83.0294 142.835C83.1962 142.895 83.3799 142.887 83.5412 142.814C83.7026 142.741 83.829 142.607 83.8936 142.442L118.646 52.8496C119.142 51.8374 119.554 50.7863 119.877 49.7069C120.961 46.5202 121.21 43.1089 120.6 39.7987C119.99 36.4885 118.542 33.3898 116.394 30.7984" fill="#4891A5"/>
<path fill-rule="evenodd" clip-rule="evenodd" d="M156.044 117.51C156.307 117.506 156.565 117.582 156.785 117.726C157.004 117.871 157.175 118.079 157.275 118.322L166.415 142.154C166.479 142.358 166.603 142.537 166.772 142.668C166.94 142.799 167.145 142.876 167.358 142.887H171.784C171.971 142.884 172.154 142.825 172.308 142.718C172.462 142.611 172.58 142.46 172.648 142.285C172.738 142.097 172.785 141.891 172.785 141.683C172.785 141.474 172.738 141.268 172.648 141.08L144.573 66.4154C144.513 66.2097 144.39 66.0282 144.22 65.8966C144.051 65.765 143.845 65.69 143.631 65.6821H143.395C143.181 65.69 142.974 65.765 142.805 65.8966C142.636 66.0282 142.512 66.2097 142.452 66.4154L113.958 141.08C113.875 141.27 113.832 141.475 113.832 141.683C113.832 141.89 113.875 142.095 113.958 142.285C114.026 142.46 114.145 142.611 114.299 142.718C114.453 142.825 114.635 142.884 114.823 142.887H119.511C119.719 142.87 119.918 142.792 120.081 142.661C120.245 142.53 120.365 142.354 120.427 142.154L129.515 118.348C129.61 118.1 129.78 117.887 129.999 117.737C130.219 117.587 130.48 117.508 130.746 117.51H156.044ZM153.425 109.392C153.308 109.569 153.149 109.715 152.961 109.815C152.774 109.916 152.564 109.968 152.351 109.968H134.7C134.487 109.971 134.277 109.919 134.089 109.818C133.901 109.718 133.742 109.571 133.626 109.392C133.5 109.225 133.42 109.03 133.392 108.823C133.365 108.616 133.391 108.406 133.469 108.213L142.216 85.1143C142.314 84.8619 142.487 84.6458 142.712 84.4957C142.937 84.3457 143.203 84.269 143.473 84.2763C143.742 84.2801 144.003 84.3645 144.222 84.5187C144.442 84.6728 144.61 84.8895 144.704 85.1405L153.451 108.161C153.543 108.356 153.583 108.571 153.57 108.786C153.556 109.001 153.488 109.209 153.373 109.392H153.425ZM186.423 142.128C186.369 142.334 186.252 142.519 186.087 142.655C185.923 142.791 185.72 142.872 185.507 142.887H180.897C180.714 142.883 180.535 142.827 180.382 142.725C180.229 142.623 180.108 142.479 180.033 142.311C179.943 142.123 179.896 141.917 179.896 141.709C179.896 141.5 179.943 141.294 180.033 141.106L206.222 66.4416C206.278 66.231 206.399 66.0438 206.569 65.9071C206.739 65.7705 206.947 65.6917 207.165 65.6821C207.381 65.6956 207.588 65.7759 207.757 65.9119C207.926 66.0479 208.049 66.233 208.108 66.4416L233.983 141.106C234.14 141.493 234.14 141.925 233.983 142.311C233.903 142.476 233.781 142.616 233.629 142.717C233.477 142.819 233.301 142.877 233.118 142.887H228.64C228.419 142.876 228.207 142.793 228.037 142.652C227.867 142.51 227.748 142.317 227.697 142.102L208.422 86.7119C208.334 86.4496 208.164 86.2222 207.938 86.0622C207.712 85.9023 207.442 85.818 207.165 85.8214C206.892 85.8199 206.626 85.9019 206.401 86.0564C206.176 86.2109 206.004 86.4305 205.908 86.6857L186.423 142.128ZM361.208 117.51C361.471 117.506 361.73 117.582 361.949 117.726C362.169 117.871 362.339 118.079 362.439 118.322L371.579 142.154C371.643 142.358 371.767 142.537 371.936 142.668C372.104 142.799 372.309 142.876 372.522 142.887H376.948C377.136 142.884 377.318 142.825 377.472 142.718C377.626 142.611 377.745 142.46 377.812 142.285C377.903 142.097 377.95 141.891 377.95 141.683C377.95 141.474 377.903 141.268 377.812 141.08L349.685 66.4154C349.63 66.2118 349.511 66.031 349.347 65.8992C349.182 65.7674 348.98 65.6914 348.769 65.6821H348.507C348.293 65.69 348.086 65.765 347.917 65.8966C347.748 66.0282 347.624 66.2097 347.564 66.4154L319.097 141.08C319.013 141.27 318.97 141.475 318.97 141.683C318.97 141.89 319.013 142.095 319.097 142.285C319.164 142.46 319.283 142.611 319.437 142.718C319.591 142.825 319.773 142.884 319.961 142.887H324.649C324.858 142.874 325.059 142.797 325.223 142.665C325.387 142.534 325.506 142.356 325.565 142.154L334.653 118.348C334.749 118.1 334.918 117.887 335.138 117.737C335.357 117.587 335.618 117.508 335.884 117.51H361.208ZM358.59 109.392C358.472 109.569 358.313 109.715 358.125 109.815C357.938 109.916 357.729 109.968 357.516 109.968H339.917C339.704 109.968 339.495 109.916 339.307 109.815C339.12 109.715 338.96 109.569 338.843 109.392C338.717 109.225 338.637 109.03 338.609 108.823C338.581 108.616 338.608 108.406 338.686 108.213L347.512 85.1143C347.604 84.864 347.773 84.6487 347.993 84.4985C348.214 84.3483 348.476 84.2706 348.743 84.2763C349.012 84.2764 349.274 84.3594 349.494 84.5141C349.715 84.6687 349.882 84.8875 349.973 85.1405L358.747 108.161C358.805 108.372 358.812 108.594 358.767 108.808C358.721 109.022 358.624 109.223 358.485 109.392H358.59ZM276.304 142.992C276.097 142.981 275.899 142.907 275.736 142.781C275.572 142.655 275.451 142.482 275.387 142.285L255.196 91.8973C255.107 91.5903 254.912 91.3251 254.645 91.1499C254.378 90.9746 254.057 90.9009 253.74 90.9421C253.423 90.9833 253.131 91.1366 252.918 91.3743C252.705 91.612 252.584 91.9184 252.577 92.2377L247.339 141.997C247.334 142.281 247.224 142.552 247.03 142.76C246.837 142.968 246.574 143.097 246.291 143.123H242.206C242.052 143.121 241.9 143.079 241.767 143.001C241.634 142.923 241.524 142.811 241.446 142.678C241.238 142.38 241.145 142.017 241.184 141.656L249.591 66.7821C249.594 66.5361 249.678 66.298 249.829 66.1041C249.981 65.9102 250.191 65.7712 250.429 65.7083C250.665 65.6601 250.91 65.7038 251.114 65.8304C251.319 65.9569 251.467 66.1569 251.529 66.3892L275.361 125.864C275.463 126.107 275.634 126.313 275.853 126.459C276.072 126.604 276.329 126.682 276.592 126.682C276.855 126.682 277.112 126.604 277.331 126.459C277.55 126.313 277.721 126.107 277.823 125.864L301.655 66.3892C301.717 66.1569 301.865 65.9569 302.07 65.8304C302.274 65.7038 302.519 65.6601 302.755 65.7083C302.993 65.7712 303.203 65.9102 303.354 66.1041C303.506 66.298 303.589 66.5361 303.593 66.7821L311.973 141.421C312.013 141.782 311.92 142.145 311.711 142.442C311.628 142.576 311.513 142.687 311.375 142.765C311.238 142.843 311.083 142.885 310.926 142.887H306.84C306.562 142.855 306.305 142.724 306.117 142.516C305.93 142.309 305.823 142.041 305.819 141.761L300.581 92.002C300.574 91.6827 300.453 91.3763 300.24 91.1386C300.026 90.9009 299.735 90.7476 299.418 90.7064C299.101 90.6652 298.78 90.7389 298.513 90.9142C298.246 91.0894 298.05 91.3546 297.962 91.6616L277.797 142.049C277.732 142.25 277.606 142.426 277.438 142.552C277.269 142.679 277.065 142.75 276.854 142.756L276.304 142.992Z" fill="#4891A5"/>
</svg>
